<?xml version="1.0" standalone="no"?>
<!DOCTYPE svg PUBLIC "-//W3C//DTD SVG 20010904//EN"
 "http://www.w3.org/TR/2001/REC-SVG-20010904/DTD/svg10.dtd">
<svg version="1.0" xmlns="http://www.w3.org/2000/svg"
 width="920.000000pt" height="359.000000pt" viewBox="0 0 920.000000 359.000000"
 preserveAspectRatio="xMidYMid meet">

<g transform="translate(0.000000,359.000000) scale(0.100000,-0.100000)"
fill="#000000" stroke="none">
<path d="M6936 3577 c-32 -23 -39 -95 -41 -422 -2 -292 -9 -452 -21 -497 -5
-17 -14 -22 -70 -33 -25 -5 -38 0 -63 21 l-32 27 -447 -12 c-1002 -27 -1195
-32 -1597 -41 -231 -5 -512 -14 -625 -20 -208 -10 -533 -21 -1230 -40 -212 -6
-500 -15 -640 -22 -140 -6 -442 -10 -670 -9 -250 2 -475 -2 -565 -9 -186 -15
-409 -18 -580 -9 -111 6 -133 4 -148 -9 -16 -14 -20 -14 -46 1 -41 24 -78 22
-96 -6 -10 -17 -14 -47 -13 -108 6 -371 -9 -617 -40 -675 -6 -12 -9 -24 -6
-27 3 -3 12 -75 18 -159 12 -148 14 -155 46 -201 27 -40 36 -47 54 -42 64 20
66 20 66 -18 0 -40 3 -43 95 -92 39 -21 89 -51 112 -67 50 -37 135 -139 156
-191 17 -39 24 -42 73 -28 21 6 44 4 74 -6 34 -12 55 -13 104 -4 34 5 93 13
131 16 39 4 88 11 110 15 46 11 1307 22 2090 20 344 -1 546 2 575 9 85 19 304
33 610 37 1385 19 1684 25 1745 34 203 28 794 33 827 8 16 -12 16 -26 0 -190
-14 -151 -14 -193 -3 -291 17 -157 24 -181 60 -192 32 -11 136 -142 194 -244
31 -54 76 -91 112 -91 29 0 67 29 61 46 -4 11 3 13 34 8 45 -7 21 -26 275 206
166 152 265 236 310 265 17 10 59 46 95 80 36 34 94 85 130 114 36 29 69 60
73 67 4 8 12 14 17 14 11 0 23 10 108 83 30 26 59 47 64 47 15 0 188 178 188
193 0 28 185 197 216 197 7 0 19 -10 25 -22 l12 -22 24 28 c13 16 26 41 30 56
6 34 63 90 118 117 122 61 141 73 152 95 21 38 15 61 -21 85 -39 25 -96 130
-96 177 0 17 -10 47 -22 66 -12 19 -27 44 -33 55 -7 13 -28 23 -60 30 -28 6
-60 19 -71 30 -12 11 -43 36 -69 55 -26 19 -58 45 -72 58 -13 12 -29 22 -35
22 -5 0 -29 18 -52 40 -22 22 -73 66 -112 99 -39 32 -113 106 -165 163 -124
135 -180 186 -254 231 -33 20 -121 93 -195 163 -209 197 -394 343 -555 439
-129 76 -202 131 -296 222 -79 75 -106 87 -143 60z m267 -324 c28 -24 55 -43
58 -43 4 0 46 -33 93 -74 48 -41 119 -96 158 -122 74 -50 389 -349 654 -619
38 -39 114 -109 169 -156 99 -83 113 -95 208 -166 26 -19 61 -54 76 -77 16
-22 52 -65 79 -95 28 -29 48 -59 46 -66 -5 -12 -248 -227 -288 -254 -12 -8
-68 -58 -126 -111 -58 -53 -152 -134 -210 -180 -58 -46 -141 -113 -185 -150
-72 -60 -157 -119 -255 -178 -19 -11 -69 -48 -110 -82 -41 -34 -115 -91 -165
-128 -225 -167 -271 -202 -286 -217 -9 -8 -19 -15 -23 -15 -5 0 -17 -11 -28
-25 -31 -40 -48 -32 -49 23 -4 277 0 492 14 627 8 88 18 201 21 251 l6 91 -37
43 -37 43 -645 -7 c-356 -4 -781 -11 -946 -15 -165 -4 -523 -13 -795 -19 -272
-7 -616 -17 -765 -22 -167 -7 -731 -9 -1475 -6 -969 4 -1253 2 -1450 -9 -135
-8 -290 -16 -345 -19 -98 -5 -215 -12 -347 -21 l-66 -5 -7 73 c-4 46 1 150 14
292 11 121 23 302 27 403 6 167 12 200 29 172 10 -16 86 -50 111 -50 13 0 35
5 50 10 15 6 75 15 133 21 58 5 189 16 291 26 130 11 378 19 830 25 355 4 678
9 718 10 39 1 213 1 385 0 171 -1 355 3 407 9 52 5 244 12 425 15 182 3 434
12 560 20 275 18 242 18 445 5 299 -18 1647 -18 1880 0 85 7 231 13 323 13
153 1 169 3 179 19 5 11 8 32 6 49 -4 26 0 33 33 54 50 31 56 67 35 187 -9 51
-17 119 -19 152 -5 75 9 364 18 388 7 15 13 14 67 -15 32 -18 82 -52 111 -75z
m1735 -1498 c2 -16 -7 -54 -21 -85 -14 -30 -35 -79 -48 -108 -17 -40 -43 -70
-107 -127 -83 -73 -122 -94 -107 -57 4 9 20 68 36 131 28 112 29 115 81 164
128 121 160 137 166 82z m72 -136 c0 -6 -4 -7 -10 -4 -5 3 -10 11 -10 16 0 6
5 7 10 4 6 -3 10 -11 10 -16z m-440 -208 c-42 -184 -64 -236 -136 -310 -34
-35 -66 -61 -72 -57 -11 7 1 95 18 126 7 12 18 68 25 124 12 92 16 103 41 121
15 11 52 41 83 67 31 26 59 47 62 47 3 1 -7 -53 -21 -118z m-7246 -13 c-7 -12
-142 -10 -149 2 -3 6 4 10 18 10 14 0 30 6 36 14 11 13 18 12 56 -2 24 -9 42
-19 39 -24z m151 23 c7 -12 -26 -31 -54 -31 -28 0 -27 18 2 30 29 12 45 12 52
1z m5433 -6 c13 -5 18 -204 6 -263 l-6 -31 -28 21 c-27 20 -36 20 -262 14
-128 -3 -257 -9 -285 -12 -43 -5 -53 -3 -53 9 0 23 86 132 114 145 32 14 34
51 6 77 -20 18 -21 18 -48 -11 -16 -16 -42 -36 -59 -45 -34 -19 -83 -107 -83
-151 0 -15 -4 -28 -9 -28 -5 0 -53 -4 -107 -9 -55 -5 -134 -12 -176 -16 l-78
-6 0 43 c0 54 23 83 115 147 61 41 70 53 73 82 2 19 8 37 14 40 11 7 843 1
866 -6z m-978 -9 c0 -15 -14 -36 -25 -36 -6 0 -37 -27 -69 -59 -56 -60 -106
-147 -106 -187 0 -19 -8 -22 -65 -28 -39 -4 -82 -2 -106 4 -23 6 -59 10 -80 9
-21 -2 -41 0 -45 3 -11 11 16 104 39 136 12 16 46 55 76 88 l54 59 91 6 c119
8 236 10 236 5z m-4992 -24 c2 -7 -3 -12 -12 -12 -9 0 -16 7 -16 16 0 17 22
14 28 -4z m126 3 c-6 -16 -44 -21 -44 -7 0 14 12 22 31 22 12 0 16 -5 13 -15z
m4386 -4 c0 -6 -10 -27 -22 -48 -13 -21 -37 -78 -54 -128 l-31 -90 -152 -9
c-84 -4 -154 -7 -156 -4 -2 2 2 23 10 46 17 48 190 228 228 235 44 9 177 7
177 -2z m-320 -7 c0 -3 -23 -32 -51 -62 -29 -31 -64 -75 -78 -97 -14 -22 -33
-46 -41 -53 -11 -10 -12 -15 -2 -18 16 -7 15 -41 -2 -47 -22 -9 -441 -11 -454
-3 -23 14 -12 44 26 71 97 72 138 133 99 148 -47 18 -199 -117 -237 -209 -7
-17 -20 -22 -77 -27 -87 -9 -207 -9 -267 -1 -35 5 -46 11 -46 24 0 18 113 130
130 130 5 0 14 9 20 21 9 16 8 25 -6 40 -9 10 -27 19 -39 19 -56 0 -182 -116
-203 -188 -7 -22 -18 -44 -25 -50 -11 -9 -109 -22 -274 -36 -55 -5 -64 -3 -73
14 -6 11 -22 23 -35 26 -14 3 -25 12 -25 20 0 26 41 82 70 94 38 16 119 96
126 126 4 15 15 26 30 29 13 3 36 8 52 11 15 4 187 6 382 6 195 0 436 3 535 7
238 10 465 12 465 5z m-1565 -54 c-3 -5 -41 -36 -83 -69 -79 -61 -119 -115
-132 -175 l-6 -31 -417 -6 c-229 -4 -427 -9 -439 -12 -13 -3 -291 -7 -618 -8
l-595 -3 -3 35 c-4 44 26 73 161 158 131 83 157 91 287 91 150 0 151 -1 91
-65 -67 -71 -88 -116 -73 -150 16 -34 42 -29 62 11 9 16 26 41 38 54 12 13 22
27 22 30 0 4 32 29 72 56 l72 49 193 5 c140 4 193 2 193 -6 0 -7 -19 -27 -42
-47 -24 -19 -53 -53 -65 -75 -20 -35 -21 -41 -7 -61 23 -32 49 -26 75 18 13
22 38 50 56 63 17 13 65 47 105 76 l73 54 137 -4 c83 -2 141 -7 148 -14 8 -8
-1 -22 -33 -50 -57 -49 -80 -100 -61 -135 7 -14 25 -31 40 -38 25 -11 30 -10
41 5 7 10 13 32 13 50 0 17 9 43 20 56 18 23 172 106 230 124 14 4 95 10 180
14 249 11 272 11 265 0z m-2671 -56 c9 -8 16 -18 16 -21 0 -3 -24 -33 -54 -67
-68 -78 -106 -134 -106 -157 0 -36 -59 -20 -112 29 -39 36 -37 75 7 136 53 75
88 94 182 95 34 1 57 -4 67 -15z m-334 -13 c0 -19 -31 -81 -40 -81 -10 0 -80
69 -80 79 0 11 28 18 83 20 30 1 37 -2 37 -18z m755 -11 c-9 -16 -22 -30 -29
-30 -33 0 -115 -126 -116 -176 0 -12 -7 -25 -16 -28 -9 -3 -85 -6 -170 -6
-120 0 -154 3 -154 13 0 42 199 236 255 250 11 2 71 5 133 6 l113 1 -16 -30z
m6993 18 c-2 -7 -11 -38 -21 -68 -9 -30 -25 -89 -36 -130 -34 -134 -41 -146
-124 -221 -43 -39 -80 -69 -82 -67 -3 2 9 36 25 75 38 90 63 188 55 213 -3 10
-15 22 -26 25 -29 9 -24 21 26 57 25 18 72 54 106 81 61 47 83 58 77 35z
m-274 -225 c-4 -16 -13 -46 -21 -68 -8 -22 -17 -49 -20 -60 -3 -11 -14 -48
-24 -83 -17 -59 -18 -65 -2 -88 16 -24 15 -26 -22 -64 -40 -41 -100 -78 -110
-68 -7 6 12 73 47 165 15 40 17 56 8 72 -19 36 -63 22 -89 -27 -8 -16 -45
-145 -71 -250 -6 -23 -24 -57 -40 -76 -17 -18 -30 -38 -30 -44 0 -12 -64 -62
-81 -62 -15 0 -5 97 16 147 30 71 13 140 -32 131 -21 -4 -57 -99 -83 -223 -35
-165 -49 -195 -117 -254 -100 -89 -120 -21 -53 180 23 69 39 132 36 145 -5 17
9 33 77 88 107 86 164 130 207 160 19 13 68 53 109 90 74 66 277 216 293 216
5 0 5 -12 2 -27z m-837 -672 c-7 -81 -14 -90 -43 -55 -13 16 -23 33 -24 39 0
9 60 75 68 75 3 0 2 -27 -1 -59z"/>
<path d="M6664 1360 c-73 -36 -121 -110 -103 -159 8 -19 14 -22 37 -16 41 10
62 34 62 71 0 26 7 36 36 54 25 16 34 28 32 43 -4 29 -17 30 -64 7z"/>
</g>
</svg>
