<?xml version="1.0" standalone="no"?>
<!DOCTYPE svg PUBLIC "-//W3C//DTD SVG 20010904//EN"
 "http://www.w3.org/TR/2001/REC-SVG-20010904/DTD/svg10.dtd">
<svg version="1.0" xmlns="http://www.w3.org/2000/svg"
 width="920.000000pt" height="359.000000pt" viewBox="0 0 920.000000 359.000000"
 preserveAspectRatio="xMidYMid meet">

<g transform="translate(0.000000,359.000000) scale(0.100000,-0.100000)"
fill="#000000" stroke="none">
<path d="M1902 3564 c-13 -9 -21 -22 -18 -30 4 -11 -3 -13 -34 -8 -45 7 -21
26 -275 -206 -166 -152 -265 -236 -310 -265 -16 -10 -59 -46 -95 -80 -36 -34
-94 -85 -130 -114 -36 -29 -69 -60 -73 -67 -4 -8 -12 -14 -17 -14 -11 0 -23
-10 -108 -82 -30 -27 -59 -48 -64 -48 -15 0 -188 -178 -188 -193 0 -28 -185
-197 -216 -197 -7 0 -19 10 -25 22 l-12 22 -24 -28 c-13 -16 -26 -41 -30 -56
-6 -34 -63 -90 -118 -117 -122 -61 -141 -73 -152 -95 -21 -38 -15 -61 21 -85
39 -25 96 -130 96 -177 0 -17 10 -47 22 -66 12 -19 27 -44 33 -55 7 -13 28
-23 60 -30 28 -5 60 -19 71 -30 12 -11 43 -36 69 -55 26 -19 58 -45 72 -57 13
-13 29 -23 35 -23 5 0 29 -18 52 -40 22 -22 73 -66 112 -99 39 -32 113 -106
165 -163 124 -135 180 -186 254 -231 33 -20 121 -93 195 -163 209 -197 394
-343 555 -439 129 -76 202 -131 296 -222 79 -75 106 -87 143 -60 32 23 39 95
41 422 2 292 9 452 21 497 5 17 14 22 70 33 25 5 38 0 63 -21 l32 -27 447 12
c1002 27 1195 32 1597 41 231 5 512 14 625 20 208 10 533 21 1230 40 212 6
500 15 640 22 140 6 442 10 670 9 250 -2 475 2 565 9 186 15 409 18 580 9 111
-6 133 -4 148 9 16 14 20 14 46 -1 41 -24 78 -22 96 6 10 17 14 47 13 108 -6
371 9 617 40 675 6 12 9 24 6 27 -3 3 -12 75 -18 159 -12 148 -14 155 -46 201
-27 40 -36 47 -54 42 -64 -20 -66 -20 -66 18 0 40 -3 43 -95 92 -38 21 -89 51
-112 67 -50 37 -135 139 -156 191 -17 39 -24 42 -73 28 -21 -6 -44 -4 -74 6
-34 12 -55 13 -104 4 -34 -5 -92 -13 -131 -16 -38 -4 -88 -11 -110 -15 -46
-11 -1307 -22 -2090 -20 -344 1 -546 -2 -575 -9 -85 -19 -304 -33 -610 -37
-1385 -19 -1684 -25 -1745 -34 -203 -28 -794 -33 -827 -7 -16 11 -16 25 0 189
14 151 14 193 3 291 -17 157 -24 181 -60 192 -32 11 -136 142 -194 244 -46 81
-106 110 -155 75z m26 -166 c2 -34 -8 -80 -38 -169 -23 -69 -39 -132 -36 -145
5 -17 -9 -33 -77 -88 -107 -86 -164 -130 -207 -160 -19 -13 -68 -53 -108 -89
-73 -65 -256 -201 -287 -213 -18 -7 -15 16 12 91 8 22 17 49 20 60 3 11 14 48
24 83 17 59 18 65 2 88 -16 24 -15 26 22 64 40 41 100 78 110 68 7 -6 -12 -73
-47 -165 -15 -40 -17 -56 -8 -72 19 -36 63 -22 89 27 8 16 45 145 71 250 6 23
24 57 40 76 17 18 30 38 30 44 0 12 64 62 81 62 15 0 5 -97 -16 -147 -30 -71
-13 -140 32 -131 21 4 57 99 83 223 35 165 49 195 117 254 63 56 87 53 91 -11z
m142 -154 c0 -5 -16 -26 -36 -45 l-37 -34 6 62 c7 83 14 92 43 57 13 -16 23
-34 24 -40z m111 -171 c4 -278 0 -493 -14 -628 -8 -88 -18 -201 -21 -251 l-6
-91 37 -43 37 -43 645 7 c356 4 781 11 946 15 165 4 523 13 795 19 272 7 617
17 765 22 167 7 731 9 1475 6 969 -4 1253 -2 1450 9 135 8 290 16 345 19 98 5
215 12 347 21 l66 5 7 -73 c4 -46 -1 -150 -14 -292 -11 -121 -23 -302 -27
-402 -6 -168 -12 -201 -29 -173 -10 16 -86 50 -111 50 -13 0 -35 -5 -50 -10
-15 -6 -75 -15 -133 -21 -58 -5 -189 -16 -291 -26 -130 -11 -378 -19 -830 -25
-355 -4 -678 -9 -717 -10 -40 -1 -214 -1 -385 0 -172 1 -356 -3 -408 -9 -52
-5 -243 -12 -425 -15 -181 -3 -433 -12 -560 -20 -275 -18 -242 -18 -445 -5
-299 18 -1647 18 -1880 0 -85 -7 -231 -13 -323 -13 -153 -1 -169 -3 -179 -19
-5 -11 -8 -32 -6 -49 4 -26 0 -33 -33 -54 -50 -31 -56 -67 -35 -187 9 -51 17
-119 19 -152 5 -85 -10 -371 -20 -390 -8 -13 -21 -8 -85 32 -99 62 -141 93
-244 179 -46 40 -117 94 -156 120 -74 50 -389 349 -654 619 -38 39 -114 109
-169 156 -99 83 -113 95 -208 166 -26 19 -61 54 -76 77 -16 22 -52 65 -79 95
-28 29 -48 59 -46 66 5 12 248 227 288 254 12 8 68 58 126 111 58 53 152 134
210 180 58 46 141 113 185 150 72 60 157 119 255 178 19 11 69 48 110 82 41
34 115 91 165 128 225 167 271 202 286 217 9 8 19 15 23 15 5 0 17 11 28 25
31 40 48 32 49 -22z m-1024 -265 c-65 -154 -92 -246 -82 -278 3 -10 15 -22 26
-25 29 -9 24 -21 -26 -57 -25 -18 -72 -54 -106 -80 -33 -27 -65 -48 -70 -48
-11 0 -11 1 14 80 9 30 25 89 36 130 32 127 43 148 122 221 72 66 97 83 86 57z
m7213 -231 c0 -28 -119 -158 -204 -222 -38 -29 -43 -30 -168 -34 l-130 -3 16
31 c9 17 23 31 30 31 33 0 115 126 116 177 0 12 6 24 13 26 6 3 83 6 170 6
123 1 157 -2 157 -12z m143 2 c45 -23 77 -62 77 -93 0 -37 -57 -122 -100 -149
-32 -20 -124 -33 -163 -23 -45 11 -41 34 16 100 69 78 107 134 107 157 0 22
29 25 63 8z m-585 -39 c4 -45 -26 -74 -161 -159 -131 -83 -157 -91 -287 -91
-150 0 -151 1 -91 65 67 71 88 116 73 150 -16 34 -42 29 -62 -11 -9 -16 -26
-41 -38 -54 -12 -13 -22 -27 -22 -30 0 -4 -32 -29 -72 -56 l-72 -49 -193 -5
c-140 -4 -193 -2 -193 6 0 7 19 27 43 47 23 19 52 53 64 75 20 35 21 41 7 61
-23 32 -49 26 -75 -18 -13 -22 -38 -50 -56 -63 -17 -13 -65 -47 -105 -76 l-73
-54 -137 4 c-83 2 -141 7 -148 14 -8 8 1 22 33 50 57 49 80 100 61 135 -7 14
-25 31 -40 38 -25 11 -30 10 -41 -5 -7 -10 -13 -32 -13 -50 0 -17 -9 -43 -20
-56 -29 -37 -197 -117 -266 -127 -92 -14 -416 -23 -409 -11 3 5 41 36 83 69
79 61 119 115 132 175 l6 31 364 8 c406 8 1539 24 1640 23 l65 -1 3 -35z
m-2258 0 c6 -11 22 -23 35 -26 14 -3 25 -12 25 -20 0 -26 -41 -82 -70 -94 -38
-16 -119 -96 -126 -125 -3 -13 -13 -26 -22 -30 -32 -12 -272 -22 -419 -17 -81
3 -343 -1 -581 -8 -238 -7 -435 -10 -438 -7 -4 4 17 32 46 64 29 32 65 76 79
98 14 22 33 46 41 53 11 10 12 15 3 18 -17 7 -16 41 1 47 22 9 441 11 454 3
23 -14 12 -44 -25 -71 -98 -72 -139 -133 -100 -148 47 -18 199 117 237 209 7
17 20 22 77 27 87 9 207 9 267 1 35 -5 46 -11 46 -24 0 -18 -113 -130 -130
-130 -5 0 -14 -9 -20 -21 -9 -16 -8 -25 6 -40 9 -10 27 -19 39 -19 56 0 182
116 203 188 7 22 18 44 25 50 11 9 139 27 257 35 25 2 53 4 62 5 10 1 22 -7
28 -18z m-4831 -49 c-4 -27 -13 -59 -19 -71 -7 -12 -18 -68 -25 -124 -12 -92
-16 -103 -41 -121 -15 -11 -53 -41 -85 -67 -32 -27 -60 -48 -62 -48 -8 0 51
241 74 302 17 47 39 79 85 127 34 35 66 61 72 57 5 -3 6 -25 1 -55z m2871 -7
c30 -1 56 -7 58 -13 2 -6 -3 -34 -12 -64 -11 -39 -32 -71 -82 -127 -37 -41
-75 -78 -83 -81 -21 -8 -321 -23 -321 -16 0 16 14 37 25 37 6 0 37 27 69 59
57 60 106 147 106 188 0 18 7 23 43 26 23 3 65 2 92 -1 28 -3 75 -6 105 -8z
m455 -11 c-4 -10 -11 -30 -15 -45 -4 -14 -52 -70 -106 -124 l-99 -97 -97 -5
c-66 -3 -98 -1 -98 6 0 6 10 28 22 49 13 21 37 79 54 128 l31 90 84 6 c46 3
117 6 158 7 66 2 72 0 66 -15z m-805 -35 c0 -54 -23 -83 -115 -147 -62 -43
-70 -52 -73 -84 -2 -23 -9 -38 -20 -41 -9 -2 -208 -1 -442 2 l-425 7 -3 105
c-2 58 0 124 3 147 l6 43 29 -21 c28 -21 35 -21 262 -15 128 3 257 9 286 12
42 5 52 3 52 -9 0 -23 -86 -132 -114 -145 -32 -14 -34 -51 -6 -77 20 -18 21
-18 48 11 16 16 42 36 59 45 34 18 83 107 83 150 0 31 0 31 220 48 165 14 150
17 150 -31z m5363 -53 c20 -18 37 -38 37 -43 0 -11 -48 -22 -91 -22 -22 0 -29
5 -29 19 0 19 31 81 40 81 3 0 22 -16 43 -35z m-8178 -172 c-4 -10 -20 -69
-36 -132 -28 -112 -29 -115 -81 -164 -82 -77 -139 -119 -154 -113 -21 8 -17
59 10 118 13 29 34 77 47 106 18 41 43 70 107 127 83 73 122 94 107 58z m7633
-5 c-3 -7 -14 -14 -26 -16 -16 -3 -20 1 -16 12 7 19 48 22 42 4z m112 -4 c0
-9 -5 -14 -12 -12 -18 6 -21 28 -4 28 9 0 16 -7 16 -16z m-490 -14 c0 -14 -50
-32 -69 -25 -14 6 -13 8 3 21 23 16 66 19 66 4z m225 0 c3 -6 -4 -10 -18 -10
-14 0 -30 -6 -36 -14 -11 -13 -18 -12 -56 2 -24 9 -42 19 -39 24 7 12 142 10
149 -2z m-7815 -231 c0 -6 -4 -7 -10 -4 -5 3 -10 11 -10 16 0 6 5 7 10 4 6 -3
10 -11 10 -16z"/>
<path d="M2590 2403 c-32 -12 -50 -37 -50 -69 0 -26 -7 -36 -36 -54 -25 -16
-34 -28 -32 -44 7 -50 118 9 155 82 31 62 13 104 -37 85z"/>
</g>
</svg>
